<?xml version="1.0" encoding="UTF-8"?>
<svg id="Layer_1" data-name="Layer 1" xmlns="http://www.w3.org/2000/svg" viewBox="0 0 495.48 122.61">
  <g>
    <path d="m378.39-40.35h30.94v188.46c0,8.16-6.62,14.78-14.78,14.78h-1.37c-8.16,0-14.78-6.62-14.78-14.78V-40.35h0Z" transform="translate(332.59 455.13) rotate(-90)" style="fill: #8db6ae; stroke-width: 0px;"/>
    <rect x="302.94" y="49.78" width="30.94" height="22.98" transform="translate(257.14 379.67) rotate(-90)" style="fill: #006d82; stroke-width: 0px;"/>
    <rect x="333.79" y="49.78" width="30.94" height="22.98" transform="translate(287.99 410.53) rotate(-90)" style="fill: #006d82; stroke-width: 0px;"/>
    <rect x="450.01" y="49.78" width="30.94" height="22.97" transform="translate(404.21 526.75) rotate(-90)" style="fill: #006d82; stroke-width: 0px;"/>
  </g>
  <path d="m299.53,69.78c40.82-1.26,82.12-1.27,122.93,0-40.82,1.27-82.12,1.26-122.93,0h0Z" style="fill: #fffef1; stroke-width: 0px;"/>
  <g>
    <path d="m292.24,76.73c-59.01,22.13-256.56,86.74-288.14,7.61C-2.19,67.82-1.38,46.53,7.49,31.08,27.44-1.79,78.24-1.54,112.26,1.04c61.78,5.93,121.89,23.51,179.98,44.76-25.87-9.4-52.22-17.47-78.83-24.5C163.88,8.51,44.1-20.02,10.43,29.87.49,44.68-.45,67.25,5.79,83.69c30.46,77.17,227.94,14.04,286.45-6.95h0Z" style="fill: #004b74; stroke-width: 0px;"/>
    <path d="m292.24,73.39c-57.05,16.79-248.42,66.47-286.09,9.64-9.36-14.66-8-35.71,3.87-48.59,37.14-38.79,156.01-15.2,205.02-5,25.95,5.68,51.73,12.16,77.2,19.7-57.5-15.81-116.21-28.7-175.74-33.39-30.66-1.99-82.61-3.78-105.15,19.91-12.33,13.34-12.71,36.56-.78,50.27,42.62,48.63,223.36,3.7,281.67-12.54h0Z" style="fill: #004b74; stroke-width: 0px;"/>
    <path d="m292.24,70.21c-57.48,12.32-241.68,48.51-284.54,8.96-8.73-8.03-10.21-22.42-3.25-32.03,16.74-22.77,70.56-21.94,96.82-21.47,64.34,2.41,128.12,13.28,190.97,26.65-50.39-10.24-101.3-18.37-152.54-22.85-25.58-2.05-51.35-3.35-76.96-1.44-17.47,1.61-40.49,4.28-53.77,16.63-9.39,8.64-9.4,24.57,0,33.21,41.13,38.44,226.44,3.7,283.27-7.66h0Z" style="fill: #004b74; stroke-width: 0px;"/>
    <path d="m292.24,66.05c-26.47,3.22-313.81,36.96-290.65-9.67,14.62-20.13,115.5-14.05,142.23-13,49.61,2.64,99.09,7.23,148.41,13.11-24.69-2.66-49.42-4.91-74.17-6.87C189.64,47.79,4.61,30.97,1.91,61.27c3.55,35.31,254.11,8.27,290.34,4.78h0Z" style="fill: #004b74; stroke-width: 0px;"/>
    <polygon points=".98 60.34 292.24 61.27 .98 62.2 .98 60.34 .98 60.34" style="fill: #004b74; stroke-width: 0px;"/>
  </g>
</svg>