<?xml version="1.0" encoding="UTF-8"?>
<svg id="Layer_1" data-name="Layer 1" xmlns="http://www.w3.org/2000/svg" viewBox="0 0 580 177.26">
  <g>
    <path d="m243.39,78.31c-72.02-1.61-144.05-3.22-216.07-4.83-9.84-.22-22.06,1.05-25.66,10.21-2.64,6.72,1.38,14.59,7.36,18.63s13.42,5.13,20.58,5.97c47.99,5.61,96.47,4.6,144.77,3.58,18.37-.39,36.74-.77,55.1-1.16,5.66-.12,12.05-.57,15.7-4.91,6.29-7.48-.66-19.74,3.84-28.41" style="fill: #6fcbd5; stroke-width: 0px;"/>
    <g>
      <path d="m167.1,77.48l-1.37-.1s.37.07,1.37.1Z" style="fill: #70cbd5; stroke-width: 0px;"/>
      <path d="m164.77,111.17c.11,0,.23-.02.33-.02-.23.01-.3.02-.33.02Z" style="fill: #70cbd5; stroke-width: 0px;"/>
      <path d="m113.77,73.94s.05,0,.07,0c.12,0,.25,0,.36,0h-.43Z" style="fill: #70cbd5; stroke-width: 0px;"/>
      <path d="m183.83,75.69c-18.38-.5-23.25-.93-42.31-1.22-9.09-.23-18.79-.37-27.67-.53-4.22.16-11.67-.26-16.66-.16l-1.93-.19c-1.72.03-3.74.04-5.47-.08l.11-.04c-2.57.05-5.47-.08-6.74-.05l.11-.04-3.12-.05.54-.05c-4.48.02-9.1-.08-13.16-.22l.33.18c-8.69-.39-11.88-.1-19.73-.51l.11-.04c-4.97.12-8.89-.05-12.84-.22-1.98-.08-3.97-.17-6.1-.22-2.12-.05-4.46-.08-7.05.15,1.3-.11-.56-.07-.46-.11-2.4.14-4.89.47-6.76.89-.46.11-.89.22-1.28.31-.38.12-.71.23-.98.33-.54.2-.85.35-.84.44-.84.28-1.43.48-1.86.62-.42.17-.67.26-.83.3-.33.1-.31.02-.55.06.09.1-2.79,1.46-4.8,3.52.3-.31.63-.61.94-.92-2.09,1.76-3.62,4.17-4.38,6.8.27-.48.49-.98.8-1.42-.8,1.98-.79,2.28-.94,2.5-.1.23-.29.46-.29,2.54l.23-.05c0,1.48.2,2.79.51,3.99.28,1.21.71,2.29,1.17,3.36.99,2.09,2.25,4.07,4.34,6.08,4.58,4.03,10.54,5.82,16.3,6.81,2.91.49,5.82.82,8.71,1.1,2.9.28,5.79.6,8.67.85,11.53,1.04,22.89,1.75,33.43,2.43l.92.22c.4.28,5.84-.16,6.63.11l2.46-.02c.69.07,2.14.16.92.18,2.27.07,2.33.03,3.96,0l2.43.23c8.96.33,16.58.13,26,.19,11.33.38,32.63-.23,44.9-.67,17.24-.73,37.31-.14,54.96-.95.29.01.8-.01,1.24-.04.22-.02.42-.03.57-.04.15-.01.24-.03.23-.03l8.08-.15c2.68-.06,5.4-.04,8.17-.35,0,0,.31-.03.89-.11.57-.07,1.41-.21,2.45-.45,1.03-.25,2.28-.61,3.61-1.24,1.33-.63,2.74-1.56,3.93-2.89.32-.31.56-.7.82-1.06.24-.38.56-.73.75-1.16.2-.42.4-.84.61-1.26.19-.43.29-.89.44-1.34.51-1.81.7-3.71.66-5.53-.03-3.67-.57-7.12-.69-10.1-.16-2.97.15-5.42.59-6.97.49-1.51.75-2.28.4-1.89-.16.2-.46.69-.92,1.54-.17.46-.37,1-.6,1.64-.15.66-.37,1.43-.49,2.32-.3,1.78-.32,4.03-.24,6.73.06,2.7.35,5.9-.15,9.43l-.02-.39c-.46,4.2-2.53,7.03-5.13,8.48-2.59,1.51-5.43,2-8.38,2.4-.48-.13-2.25-.03-4.2.02-1.95.06-4.05.15-5.08.12l.2-.03c-5.39.38-11.12.01-16.31.36.2-.03.31-.13,1.51-.16-3.79.12-8.97.31-9.25.11-9.05.24-21.68.42-27.47.86l.4-.06c-3.3.29-4.28.12-7.97.31-.2-.02-.46-.03-.42-.04-3.59.29-10.5.24-13.41.38l-.19-.13-7.17.15h2.68c-.92.37-5.42-.15-10.62.14-4.86.01-9.86.85-14.91.69-2.41.18,2.12-.29-1.48-.14-.12-.19,1.68-.13.75-.27-3.54.09-5.8-.2-10.16-.09l-.18-.15c-5.69.23-10.73-.3-14.51-.12-5.87.02-3.92-.54-10.03-.4l-2.37-.27c-2.61-.13-1.88.18-4.77-.03.18-.12-3.65-.24-1.95-.3-3.27-.22-6.59-.35-10.18-.46-3.58-.17-7.42-.34-11.71-.84-1.89.1-6.21-.37-7.61-.31-.22-.13-8.66-.82-3.79-.6.42.02,1.16.09,1.1.13l.59-.09c-2.44-.37-4.66-.52-6.89-.68-2.22-.17-4.44-.32-6.86-.6,1.43.2,3.34.4,2.05.36l-4.49-.52h.95c-2.22-.3-4.43-.6-6.6-1.01l.88.3c-1.6-.3-2.65-.6-3.75-.9-1.1-.29-2.21-.59-3.97-1.07-1.59-.4,2.81,1.15-.41.13-1.99-.75-4.43-1.9-6.6-3.57-2.17-1.64-4.01-3.92-5.22-6.23.05.25-.12.08-.33-.34-.11-.21-.25-.48-.4-.77-.12-.3-.26-.64-.4-.97l.08-.2c-.89-2.61-.65-3.16-.65-3.64.15-.48-.04-.99.49-3.53-.02.15-.01.31,0,.47-.03-.47.07-.92.1-1.41.2-.56.41-1.02.57-1.4.16-.38.39-.63.53-.87.16-.23.29-.41.41-.57.13-.15.27-.26.4-.39.28-.24.5-.54.96-.95.23-.21.51-.46.84-.79.37-.29.81-.64,1.35-1.07-.89.62-1.15.71-.9.44.12-.13.37-.35.74-.63.4-.24.9-.54,1.52-.84-.19.14-.37.31-.55.46.64-.4,1.13-.57,1.52-.78.4-.2.75-.34,1.25-.49-.83.39-.4.31,1.75-.35-.48.18-.94.38-1.39.61,1.29-.55,2.68-.95,4.07-1.31,1.66-.21,3.81-.48,5.74-.59,1.93-.1,3.62-.1,4.32,0,0,0,1.84.04,3.89.09,2.06.04,4.34.06,5.19-.03-1.49.11,2.59.25,1.42.39,1.92-.11,7.58-.12,9.85.1h-.43c8.38.37,14.34.1,21.86.47-.34-.18,3.63,0,2.66-.24,7.79-.05,14.18.77,17.01.15,3.54.04,4.19.25,6.02.33l-.84.02c6.64.09,8.56.13,13.49.25,2.46-.01,2.85-.32,7.26-.15-1.43.09.37.11,2.02.15-1.05,0-1.38.04.78.17.31-.03.78-.05,1.22-.06.02.01.1.02.06.03,2.75.02,2.27-.03,1-.08.06-.02-.04-.04-.44-.09,2.85.23,7.96.17,8.3.39,8.28.13,14.2.04,21.08.11.77.13-.84.19-2.84.19l4.89.07c-.05.16-2.81.03-4.31.03,5.81.39,12,0,18.81.4l1.42-.1.41.03c-.02-.07,1.51-.13,2.52-.12.96.16-.07.32,3.3.39,2.67.19,7.59.1,11.09.1-1.88-.07-1.27-.13-.46-.16,1.69.03,2.66.19,3.96.16l.16.19c-.66-.19,4.41-.09,5.04-.16.96.16-2.62.06-3.05.16,6.77.13,3.39.07,10.15.2,3.62-.06-.65-.19,1.08-.32,3.19.03,6.3-.03,9.96.17l-1.16-.19c5.99,0,9.58.1,13.61.36,44.66-.37,9.45-1.66,9.45-1.66-17.56-.76-26.64-.48-47.56-.81Z" style="fill: #70cbd5; stroke-width: 0px;"/>
    </g>
  </g>
  <g>
    <path d="m349.73,35.25l1.84-.76c-.08-.08-.56.09-1.84.76Z" style="fill: #70cbd5; stroke-width: 0px;"/>
    <path d="m390.57,157.13c-.15-.05-.31-.13-.44-.17.3.14.4.17.44.17Z" style="fill: #70cbd5; stroke-width: 0px;"/>
    <path d="m422.56,12.73s-.07.02-.1.02c-.15.05-.33.11-.47.16l.57-.18Z" style="fill: #70cbd5; stroke-width: 0px;"/>
    <path d="m332.45,53.38c11.6-6.4,18.97-10.3,26.46-14.15,7.5-3.8,14.99-7.87,27.09-13.64,2.91-1.33,5.92-2.51,8.92-3.82,1.49-.67,3.03-1.2,4.55-1.8,1.52-.58,3.04-1.19,4.59-1.7,6.13-2.25,12.39-4,18.41-5.51,1.39-.51,3.09-.99,4.95-1.44,1.87-.41,3.92-.74,6-1.1,4.17-.63,8.48-1.13,11.93-1.75.91.09,1.82.14,2.73.25,1.19-.18,2.49-.34,3.79-.44,1.3-.1,2.61-.15,3.82,0l-.15.14c1.78-.18,3.69-.23,5.37-.24,1.68.06,3.13.13,4.02.08l-.16.13c1.45.04,2.9.07,4.34.21l-.76.13c6.24.05,12.62,1.04,18.12,2.34l-.34-.66c1.47.36,2.8.8,4.06,1.13,1.25.35,2.43.61,3.53.93,2.19.66,4.15,1.18,6.07,1.72,1.88.63,3.73,1.25,5.74,1.99,1.97.83,4.07,1.84,6.47,3.12l-.19.06c3.21,1.24,6.08,2.45,8.55,4,1.25.75,2.48,1.46,3.61,2.26,1.12.83,2.23,1.64,3.33,2.46.55.41,1.1.82,1.65,1.24.53.44,1.07.89,1.61,1.33,1.08.89,2.2,1.78,3.37,2.68,1.12.96,2.29,1.94,3.55,2.93.62.5,1.3.97,1.95,1.51.64.54,1.31,1.09,2.01,1.64-1.39-1.1.34.74.13.74.6.55,1.2,1.11,1.8,1.66.61.54,1.13,1.16,1.69,1.71,1.09,1.13,2.14,2.18,3.07,3.07,1.77,1.86,3.1,3.07,3.59,2.76.74.94,1.27,1.61,1.59,2.11.31.52.47.84.54,1.07.14.46-.05.52-.05.9.2-.16.93.58,1.89,1.75.46.59,1.05,1.25,1.53,2.02.5.77,1.01,1.58,1.5,2.38l-1.05-1.37c.93,1.52,1.91,3.01,2.8,4.55l2.51,4.72-.11-2.29c.59,1.31.86,2.07.98,2.55.1.49.04.71,0,.91-.08.4-.11.74,1.05,3.19l.7-.36c2.78,7.41,2.93,12.25,3.63,19.64,1.09,7.6,1.1,15.47-1.18,22.65-2.23,7.18-6.86,13.69-12.53,19.21-2.83,2.77-5.9,5.35-9.1,7.74-3.18,2.42-6.57,4.56-9.87,6.73-6.73,4.14-13.64,7.63-20.51,10.4l-1.44-.03c-.43-.28-2.17.8-3.99,1.93-1.81,1.14-3.77,2.14-4.43,1.99l-3.09,1.57c-.96.19-2.96.62-1.39-.07-3.04.93-3.06,1.08-5.17,2.02-1.13.2-2.29.27-3.43.4-1.52.35-3.01.71-4.48,1.08-1.48.32-2.93.63-4.37.94-.72.16-1.44.32-2.15.48l-1.07.25-1.08.19c-1.44.26-2.87.51-4.31.77-.72.12-1.44.28-2.17.37-.73.09-1.46.18-2.2.27-1.47.17-2.96.35-4.47.52-1.51.11-3.05.15-4.62.22-1.57.06-3.17.13-4.8,0-.98-.09-2.02-.18-3.1-.28-1.08-.1-2.21-.12-3.37-.31-1.16-.14-2.36-.29-3.6-.44-1.23-.15-2.51-.24-3.79-.51-5.16-.82-10.7-1.96-16.21-3.54-11-3.22-21.85-8.16-29.76-11.92-5.62-2.54-11.29-5.59-17.11-8.73-2.9-1.58-5.84-3.18-8.79-4.79-1.48-.81-2.96-1.61-4.44-2.42-1.5-.79-2.99-1.58-4.49-2.37-11.99-6.33-24.42-12.22-36.74-15.92-.74-.41-2.86-.9-2.88-.78l-5.55-1.92-2.78-.95-2.81-.87-5.61-1.75-5.67-1.57s-.43-.12-1.22-.33c-.79-.2-1.92-.55-3.37-.87-1.44-.32-3.17-.71-5.11-1.15-.97-.22-1.99-.44-3.06-.68-1.07-.19-2.19-.39-3.35-.6-2.31-.38-4.74-.9-7.26-1.21-2.52-.32-5.11-.64-7.68-.96-2.58-.21-5.15-.38-7.63-.55-.62-.04-1.23-.08-1.84-.12-.61,0-1.21-.02-1.8-.02-1.18,0-2.34-.01-3.45-.02-4.43-.09-8.19.31-10.63.62-2.45.33-3.58.75-2.83,1.22.75.48,3.4,1.04,8.48,1.69,2.54.38,5.67.94,9.48,1.49,1.89.36,3.95.75,6.19,1.18,1.12.22,2.28.41,3.48.67,1.2.28,2.44.56,3.73.86l-.58.1c1.54.27,3.01.53,4.41.78,1.41.23,2.74.57,4.03.83,1.29.26,2.53.51,3.73.76,1.2.23,2.36.45,3.48.72,2.25.5,4.39.92,6.52,1.29,2.12.38,4.19.81,6.35,1.13,1.03,1.38,9.87,2.99,12.57,4.24h-.29c7.56,1.6,14.67,5.84,21.78,7.93-.3-.02-.57.21-2.15-.41,5.07,1.82,11.93,4.55,12.03,5.32,2.98,1.21,6.18,2.73,9.5,4.21,3.28,1.55,6.65,3.13,9.88,4.66,3.21,1.57,6.32,3.02,9.1,4.32,2.77,1.3,5.24,2.37,7.2,3.09l-.59-.1c4.53,1.56,5.46,2.77,10.34,4.93.22.21.53.43.46.43,4.89,1.81,13.56,6.85,17.58,8.27l.07.52c3.19,1.41,6.42,2.73,9.71,3.93-1.22-.49-2.42-.99-3.62-1.52.86-.3,2.61.61,5.12,1.8,2.51,1.17,5.82,2.61,9.62,3.23,3.48.88,7.14,1.26,10.83,1.17l2.75.04,1.37.05h1.37c1.83,0,3.64.12,5.45.45,3.52-.31-3.13.74,2.11.61.14.66-2.47.3-1.15.87,2.59-.07,4.7.16,6.98.38,2.27.13,4.71.15,7.9-.16l.29.49c2.07-.42,4.08-.67,6.02-.85,1.95-.12,3.81-.42,5.6-.57,3.59-.29,6.79-.86,9.42-1.83,2.09-.5,3.46-.89,4.54-1.05,1.07-.17,1.82-.2,2.58-.24.76-.05,1.53-.1,2.63-.38,1.09-.31,2.51-.83,4.57-1.74,1.17-.15,2.37-.24,3.53-.46,3.65-1.24,2.3-1.73,6.4-2.91-.08.5,5.08-1.8,2.94-.45,2.28-.81,4.56-1.68,6.77-2.84,2.22-1.14,4.51-2.25,6.77-3.62,2.27-1.35,4.69-2.63,7.13-4.13,1.24-.72,2.51-1.45,3.84-2.16,1.33-.71,2.65-1.52,4.06-2.26.92-1.11,2.81-2.39,4.57-3.72,1.77-1.31,3.46-2.61,4.09-3.49.25.05,2.81-1.92,4.6-3.37,1.78-1.46,2.88-2.28.37.44-.44.45-1.3,1.16-1.33,1l-.37.94c3.17-1.97,5.64-4.38,7.86-7,2.22-2.63,4.2-5.45,6.4-8.55-.35.45-.72.93-1.07,1.38-.36.43-.7.83-.95,1.13-.51.58-.72.73-.25-.16,1.45-1.81,2.75-3.77,3.97-5.78-.13.49-.27.98-.41,1.47,1.92-2.96,3.54-6.18,4.77-9.57-.32.42-.63.83-.97,1.23,1.02-2.41,1.76-4.05,2.31-5.83.54-1.78.95-3.71.84-6.65-.18-2.63-1.14,4.76-.81-.62.44-3.37.6-7.62.26-12.05-.16-2.21-.44-4.47-.81-6.68-.41-2.2-.94-4.36-1.41-6.44-.18.46-.4.14-.67-.58-.25-.72-.69-1.8-1.1-2.89l.39-.41c-.89-2.08-1.31-3.34-1.57-4.18-.28-.82-.31-1.25-.33-1.69-.02-.43-.04-.86-.31-1.7-.13-.42-.33-.93-.61-1.59-.3-.66-.63-1.49-1.23-2.45l.67.56-2.01-1.66c-1.13-1.68-1.76-2.78-2.16-3.62-.41-.82-.63-1.35-.83-1.92-.22-.57-.46-1.15-1-2.03-.27-.44-.62-.95-1.08-1.57-.44-.63-1.05-1.33-1.84-2.14,2.08,2.84.02,1.95-2.25-1.68l1.02.62c-.72-.95-1.24-1.56-1.68-2.09-.43-.55-.8-1.01-1.26-1.65,1.09.95,1.03.17-1.23-2.53l1.95,1.47-2.43-2.33c-.82-.76-1.59-1.56-2.46-2.26-1.55-2.04-3.72-4.56-5.89-6.53-1.06-1.02-2.04-1.97-2.83-2.79-.81-.8-1.45-1.43-1.73-1.91,0,0-.51-.46-1.31-1.18-.82-.69-1.86-1.72-3.1-2.63-2.46-1.84-5.19-3.86-6.48-4.2,2.1.86-2.85-2.68-1.11-2.16-.67-.29-1.62-.78-2.72-1.39-1.11-.57-2.4-1.21-3.67-1.9-1.28-.67-2.51-1.46-3.68-2.06-1.15-.62-2.15-1.22-2.84-1.73l.6.24c-5.43-3.16-10.55-4.93-15.49-6.52-2.48-.77-4.96-1.36-7.44-2.12-2.52-.61-5.07-1.33-7.77-2.09.38.66-5.34-.76-4.05.24-.71-.09-1.42-.19-2.11-.3-.7-.08-1.38-.17-2.06-.25-1.35-.18-2.66-.38-3.93-.59-2.53-.4-4.9-.68-7.04-.99-2.14-.26-4.07-.33-5.72-.29-.82.03-1.58.09-2.26.24-.68.16-1.28.38-1.79.66-2.59.08-4.13-.08-5.35-.2-1.23-.11-2.14-.26-3.49-.25l1.23-.18c-9.72.67-12.51,1.17-19.66,2.16-3.51.86-3.89,1.89-10.2,3.02,1.95-.83-.62-.26-2.95.33,1.47-.44,1.9-.71-1.23-.21-.4.24-1.05.48-1.65.71-.03-.03-.16-.02-.11-.08-3.86,1.14-3.14,1.09-1.32.69-.07.09.1.13.69.1-2.1.21-4.86,1.1-7.21,1.76-2.35.66-4.22,1.33-4.59,1.05-1.42.51-2.81.97-4.12,1.5-1.31.54-2.57,1.06-3.8,1.57-2.48.98-4.71,2.16-6.93,3.2-4.46,2.05-8.48,4.38-12.94,6.59-1.17.16.78-1.16,3.35-2.51l-3.18,1.57c-1.06.53-2.09,1.1-3.13,1.65-.09-.25.78-.78,1.91-1.39,1.13-.6,2.56-1.21,3.52-1.73-1,.35-2,.74-2.98,1.17-.97.45-1.94.94-2.9,1.44-1.93,1.01-3.86,2.12-5.82,3.24-3.86,2.35-7.92,4.73-12.38,6.81l-1.57,1.37-.55.22c.14.18-1.64,1.52-2.87,2.3-1.43.28-.45-.98-4.65,1.45-3.57,1.51-9.35,5.6-13.59,8.29,2.39-1.26,1.76-.61.83.11-2.1,1.2-3.55,1.47-5.08,2.56l-.51-.44c1.12.07-5.2,3.64-5.87,4.27-1.43.24,3.11-2.12,3.46-2.74-4.24,2.34-5.29,2.92-6.35,3.51-1.06.57-2.1,1.21-6.39,3.41-4.37,2.77,1.11.1-.84,1.72-3.97,2.24-7.84,4.47-12.72,6.38l1.73-.2c-1.88,1.05-3.65,1.8-5.26,2.57-1.62.74-3.11,1.39-4.53,1.98-2.88,1.09-5.51,1.86-8.3,2.6-.46.21-.9.41-1.35.61-.45.18-.89.35-1.33.53-.88.35-1.73.68-2.56,1.01-1.66.66-3.22,1.28-4.69,1.87-2.99,1.03-5.6,1.92-7.86,2.7-2.25.86-4.23,1.29-5.86,1.82-1.64.49-2.96.92-4,1.3-2.09.77-3.02,1.19-3.14,1.55-.12.34.56.54,1.75.63,2.41.09,6.89-.24,10.74-.73,3.81-.67,7.02-1.34,7.02-1.34.8-.16,1.59-.31,2.37-.47.76-.2,1.52-.4,2.26-.6,1.48-.41,2.93-.81,4.34-1.19,2.84-.73,5.43-1.72,7.97-2.65,1.26-.47,2.51-.94,3.74-1.4,1.23-.47,2.4-1.03,3.59-1.54,2.35-1.07,4.72-2.09,7.04-3.24,9.32-4.59,18.75-10.12,31.78-17.71Z" style="fill: #70cbd5; stroke-width: 0px;"/>
  </g>
  <g>
    <path d="m521.51,38.74l-.69-.53c-.03.1.13.27.69.53Z" style="fill: #70cbd5; stroke-width: 0px;"/>
    <path d="m316.08,81c-.06.03-.14.06-.19.09.14-.05.18-.07.19-.09Z" style="fill: #70cbd5; stroke-width: 0px;"/>
    <path d="m490.9,23.17s.03,0,.05,0c.08-.01.17-.02.24-.03l-.28.03Z" style="fill: #70cbd5; stroke-width: 0px;"/>
    <path d="m534.02,36.52c-1.28-.76-2.51-1.31-3.61-1.91-1.1-.59-2.12-1.13-3.08-1.64-1.95-.95-3.67-1.78-5.39-2.62-1.74-.82-3.56-1.48-5.65-2.26-1.04-.4-2.19-.73-3.44-1.07-1.25-.34-2.62-.69-4.12-1.06-1.44-.36-2.91-.68-4.39-1-.74-.15-1.49-.31-2.23-.47l-2.26-.33c-1.51-.21-3.01-.44-4.49-.62-1.49-.13-2.97-.25-4.41-.38-1.4.23-3.28.13-5.24.02-.98-.06-1.97-.12-2.92-.14-.95,0-1.86.11-2.67.28l-1.26-.48c-1.12.26-2.42.38-3.55.2l.07-.14c-1.65.46-3.54.36-4.35.59l.06-.14c-.67.07-1.35.11-2.01.21l.33-.24c-1.42.36-2.87.63-4.29.83-.71.1-1.42.18-2.11.25-.69.1-1.36.18-2.01.25l.31.54c-2.81.14-4.68.58-6.43,1.12-1.76.53-3.48.92-5.99,1.22l.03-.15c-1.44.77-2.78,1.25-4.07,1.58-1.28.37-2.52.61-3.76.84-2.51.43-5,1.01-7.85,2.72.71-.43-.43-.17-.41-.33-2.76,1.16-5.72,2.34-5.36,3.42-2.02.75-1.77.3-2.19-.01.19.46-1.48,1.34-3.04,1.98l.65-.46c-1.49.63-2.95,1.3-4.41,1.96l1.23.51c-2.46.72-1.04-.82-3.21.32l.33.71c-3.31,1.22-5.68.94-9.04,1.77-13.15,5.35-26.1,13.48-38.81,16.74l-.74-.34c-.52-.69-2.92,2.42-3.67,1.84l-1.29.88c-.45,0-1.35.14-.71-.29-1.33.44-1.31.58-2.18,1.17-.53,0-1.06,0-1.59-.02-2.68.66-5.05,1.62-7.46,2.57-2.42.91-4.87,1.88-7.69,2.6-3.51.4-8.34,1.74-13.25,3.1-2.45.7-4.92,1.42-7.23,2.08-2.31.7-4.47,1.31-6.3,1.81-2.55.83-5.27,1.4-8.08,1.74-1.4.18-2.83.33-4.26.46-1.44.12-2.89.19-4.34.27-1.45.09-2.9.18-4.34.27-1.44.07-2.88.16-4.3.28-1.42.12-2.83.29-4.21.5-1.39.18-2.75.42-4.09.73-.36-.09-1.25.27-1.23.37-1.65.15-3.31.27-4.97.35l-4.97.29s-3.01.17-6.96.4c-1.97.16-4.18.23-6.37.39-2.18.16-4.34.35-6.22.52-3.75.39-6.37,1.01-5.75,1.98.31.49,1.43,1.06,3.65,1.74,1.11.34,2.49.71,4.18,1.1,1.69.37,3.69.73,6.05,1.13l-.25.19c2.79.19,5.06.21,7.11.08,2.05-.14,3.88-.39,5.76-1.02.68,1.11,4.57-.21,5.89.07l-.12.1c3.3-1.16,7.04.1,10.22-1.03-.12.1-.15.43-.9.54,2.36-.43,5.56-1.08,5.82-.43,5.64-.85,13.57-1.81,16.97-3.52l-.21.23c1.92-1.05,2.63-.56,4.84-1.38.14.06.31.07.29.12,2.08-1.13,6.46-1.38,8.17-2.11l.21.41,4.38-1.08-1.67.27c.15-.66,1.02-.66,2.24-.68,1.21-.04,2.76-.12,4.25-.9,1.5-.3,2.85-1.27,4.21-2.24,1.36-.98,2.73-1.9,4.33-2.03,1.3-.95-1.03,1.25,1.02.23.24.59-.91.67-.21,1,2.06-.86,3.69-.35,6.19-1.57l.25.44c1.58-.96,3.24-1.27,4.76-1.58,1.51-.32,2.89-.59,3.88-1.37,3.36-1.55,2.84.66,6.14-1.56l1.63.13c1.59-.45.83-1.17,2.66-1.48.04.44,2.29-.46,1.42.28,4.11-.87,7.52-3.85,12.96-4.91.78-1.2,3.48-1.83,4.05-2.74.28.28,5.05-2.1,2.54-.17-.22.16-.65.33-.68.19l-.15.59c3.21-.37,4.95-2.7,7.8-3.79-.89.22-1.98.74-1.37.11l2.62-1.08-.37.61,3.95-1.48-.74-.23c1.99-.59,3-.09,4.83-1.69.8-.79-2.06.16-.14-.86,2.66-.78,6.63-1.96,9.9-3.17-.53-.4.35-.75,1.19-1.23l.3.42c3.14-2.08,1.67.49,4.84-1.42l-.17.44.5-1.33c2.69-2.17,2.03.28,4.94-2.3-1.32.6-1.04-.77.71-1.22l-.25.61c.88-.45,1.12-.76,1.77-.91-.45.46-.05.75,1.28.18l-.7.9,2.26-1.77c1.08-.12,2.35-.62,3.48-1.04,1.14-.39,2.14-.72,2.66-.53,0,0,1.1-.28,2.29-.69,1.19-.42,2.49-.88,2.88-1.39-.73.7,1.7.16,1.17.88.48-.42,1.52-.98,2.62-1.41,1.11-.39,2.28-.66,3.02-.57l-.24.13c1.26-.17,2.4-.47,3.48-.75,1.08-.27,2.1-.58,3.11-.89,2.01-.66,3.99-1.12,6.27-1.16-.29-.54,2.12-.62,1.43-1.26,2.29-.65,4.47-.52,6.24-.54,1.77.07,3.14-.02,3.93-1.21,2.14-.28,2.56.41,3.67.52l-.51.12c2-.1,3.29-.16,4.45-.18,1.16-.02,2.2.09,3.68.18.75-.07,1.2-.37,1.8-.6.6-.24,1.35-.4,2.67-.11-.9.32.19.37,1.19.48-.64,0-.85.13.42.55.2-.11.49-.16.76-.19,0,.03.06.07.02.11,1.68.04,1.41-.13.64-.27.05-.06,0-.15-.23-.29,1.67.67,4.8.68,4.9,1.41,2.5.29,4.65.53,6.7.77,2.07.17,4.01.47,6.08.91.35.49-.69.54-1.89.35l2.9.68c-.18.51-1.73-.17-2.64-.31,1.57.92,3.4,1.12,5.25,1.56.93.2,1.89.4,2.84.69.48.14.95.3,1.42.5.46.21.91.46,1.36.75l.95-.07.2.16c.07-.21,1.05-.15,1.65.02.37.65-.45.98,1.46,1.72,1.28,1.1,4.27,1.71,6.3,2.43-.99-.59-.55-.65-.03-.58.92.47,1.23,1.17,2.02,1.36l-.21.6c-.08-.72,2.67.7,3.14.66.29.68-1.61-.4-2-.21,1.83.94,2.29,1.18,2.73,1.45.44.26.89.52,2.66,1.56,2.14.74-.03-.71,1.16-.64,1.77.86,3.55,1.66,5.21,3.22l-.27-.86c.83.43,1.56.84,2.22,1.24.64.42,1.21.84,1.73,1.26,1.04.84,1.88,1.68,2.69,2.66,1.52.85,2.84,1.68,4.06,2.35,1.21.69,2.29,1.27,3.18,1.83,1.82,1.08,3.17,1.77,4.13,2.14,1.91.75,2.24.21,1.89-.85-.4-1.07-1.56-2.67-2.62-4-.54-.66-1.04-1.28-1.43-1.7-.4-.41-.65-.66-.65-.66-1.98-2.07-3.76-3.89-5.68-5.31-1.89-1.45-3.7-2.78-5.73-3.91-1-.58-2.01-1.16-3.07-1.77-1.05-.61-2.2-1.13-3.37-1.74-1.19-.59-2.4-1.26-3.74-1.89-1.34-.62-2.77-1.3-4.28-2.04Z" style="fill: #70cbd5; stroke-width: 0px;"/>
  </g>
  <g>
    <path d="m542.27,139.5l-.87.15c.06.09.29.08.87-.15Z" style="fill: #70cbd5; stroke-width: 0px;"/>
    <path d="m337.11,117.66c-.07.01-.14.01-.2.03.14,0,.19-.01.2-.03Z" style="fill: #70cbd5; stroke-width: 0px;"/>
    <path d="m509.58,142.3s.03,0,.04,0c.06-.04.14-.06.19-.1l-.23.11Z" style="fill: #70cbd5; stroke-width: 0px;"/>
    <path d="m547.64,128.41c-4.71,2.56-7.85,3.84-11.08,5.01-.8.31-1.59.63-2.42.96-.82.34-1.71.61-2.63.97-.93.35-1.91.73-2.97,1.17-.53.21-1.08.46-1.67.69-.59.22-1.21.44-1.85.68-1.26.39-2.52.81-3.8,1.24-1.26.47-2.59.76-3.88,1.16-1.3.38-2.59.76-3.87,1.14-1.3.3-2.58.59-3.83.88-2.23,1.41-6.66,1.11-9.44,2.22-.39-.1-.78-.22-1.17-.36-.97.31-2.13.57-3.15.38l.05-.14c-1.46.46-3.15.41-3.89.59l.06-.14-1.81.08.31-.2c-2.59.39-5.29.54-7.64.16l.17.59c-1.26-.23-2.32-.33-3.28-.37-.96-.04-1.81,0-2.64-.07-1.67-.08-3.29-.16-5.5-.81l.08-.13c-2.98.35-5.22-.36-7.43-1.09-2.22-.75-4.42-1.55-7.53-1.61.78,0-.24-.37-.14-.49-2.73-.56-5.61-1.32-5.98-.25-1.96-.59-1.49-.82-1.62-1.32-.13.48-1.9.15-3.43-.3l.76.04-4.42-1.25.56,1.18c-2.24-1.02-.23-1.29-2.52-1.81l-.22.75c-3.16-1.23-4.65-3.01-7.55-4.63-6.39-2.41-13.24-4.45-20.07-6.29-6.82-1.84-13.5-3.6-19.57-5.82l-.41-.71c-.04-.89-3.75.37-4.03-.52-.51,0-1.03,0-1.54.03-.37-.24-1.2-.6-.43-.62-1.34-.34-1.41-.21-2.43-.17l-1.33-.85c-1.31-.4-2.59-.7-3.86-.95-1.27-.22-2.54-.4-3.81-.56-2.54-.33-5.12-.67-7.92-1.27-6.57-2.42-19.56-3.4-27-3.81-10.51-.15-22.22-4.88-33.02-4.44-.33-.15-1.26.04-1.26.13l-9.73-1.02s-2.95-.28-6.82-.54c-3.87-.24-8.67-.47-12.35-.36-7.38.21-10.34,1.65,7.26,6.68l-.26.16c5.28.89,8.61,1.3,12.35.68.48,1.19,4.35.52,5.56,1l-.13.08c3.32-.59,6.59,1.36,9.78.89-.13.08-.23.39-.95.33,2.28.09,5.41.13,5.51.83,2.71.21,5.95.59,8.95.85,3,.28,5.77.42,7.57.1l-.26.16c2.06-.48,2.56.23,4.81.15.11.1.26.17.23.2,2.24-.43,6.28.72,8.04.7l.05.46,4.27.53-1.58-.33c.74-1.13,3.11,1.22,6.31.96,2.85.62,6.28-1.56,9.17-.4,1.53-.3-1.42.69.79.64-.05.64-1.07.21-.61.81,2.14.09,3.31,1.25,5.96,1.34v.51c3.53-.2,6.19,1.9,8.58,1.55,3.52.38,1.98,1.96,5.76,1.82l1.23.97c1.49.47,1.28-.53,2.89.2-.2.39,2.04.86.96,1,1.82.81,3.81,1.03,5.92,1.42,2.11.4,4.36.9,6.69,2.13,1.32-.51,3.65.76,4.63.4.03.38,4.96,1.58,1.94,1.47-.26-.01-.68-.15-.61-.28l-.48.36c1.26.87,2.57,1.14,3.91,1.32,1.33.2,2.69.31,4.05.84-.77-.43-1.87-.74-1.04-.82l2.55.93-.67.21,3.75,1.54-.36-.66c1.79.9,2.16,1.94,4.52,2,1.09-.04-1.55-1.27.48-.73,2.39,1.21,5.99,3.04,9.18,4.3-.11-.65.75-.33,1.68-.13l-.06.51c3.67.52.91,1.47,4.52,2.11l-.41.23,1.24-.69c3.42.07,1.36,1.55,5.25,1.35-1.4-.35-.32-1.25,1.3-.52l-.57.33c.97.2,1.34.1,1.94.38-.64.08-.5.58.91.91l-1.1.3,2.88-.07c.95.53,2.28.86,3.45,1.17,1.18.3,2.21.56,2.55.99,0,0,1.08.38,2.34.64,1.25.27,2.65.5,3.24.23-1,.27,1.45.94.63,1.33.64-.14,1.84-.13,3.05-.01,1.21.1,2.43.34,3.08.73l-.27.02c2.56.67,4.85.69,7.03.79,1.09.07,2.17.04,3.27.07,1.1.04,2.21.14,3.38.38-.19-.59,2.28-.14,1.69-.91,2.43-.29,4.62-.01,6.46.17,1.83.2,3.27.05,4.07-1.16,2.17-.29,2.63.34,3.77.37l-.51.16c2.05-.21,3.36-.47,4.54-.66,1.18-.18,2.24-.32,3.76-.51,1.48-.41,1.53-1.52,4.24-1.81-.78.59.29.29,1.29.09-.62.19-.79.38.58.4.16-.17.43-.3.68-.42.02.03.08.04.06.09,1.64-.48,1.32-.55.53-.45.02-.07-.06-.14-.32-.2.46.05.99,0,1.54-.07.54-.09,1.08-.25,1.59-.37,1-.25,1.83-.43,2.02-.11,1.23-.37,2.36-.75,3.42-1.13,1.06-.39,2.03-.88,2.98-1.31.95-.44,1.87-.87,2.8-1.3.93-.42,1.86-.83,2.81-1.31.57.16-.22.87-1.34,1.42.94-.37,1.84-.81,2.76-1.22.17.51-1.5.93-2.33,1.37,3.66-.55,6.61-3.43,10.7-4.58l.61-.75.26-.04c-.11-.2.61-.87,1.14-1.2.37.08.48.33.74.44.25.12.65.09,1.56-.43,1.66-.4,4.03-2.43,5.77-3.72-1.04.53-.85.1-.5-.28.87-.56,1.62-.48,2.19-1.08l.42.48c-.66-.29,1.97-1.99,2.15-2.41.76.08-1.15,1.2-1.18,1.63,3.49-2.31,1.81-1.05,5.18-3.54,1.53-1.69-.67-.25-.13-1.32.76-.62,1.46-1.3,2.22-1.94.38-.33.79-.63,1.2-.94.41-.32.85-.63,1.35-.91h-.89c1.28-1.32,2.34-2.31,3.37-3.11.51-.4,1.02-.75,1.54-1.08.5-.35,1-.68,1.55-.99,2.11-2.74,3.68-4.87,4.64-6.71,1.01-1.78,1.62-3.07,1.93-3.98.61-1.83.03-2.18-.98-1.76-2.04.73-5.8,4.13-5.8,4.13-2.06,1.52-3.77,2.92-5.31,4.35-1.6,1.35-3.09,2.65-4.56,4.07-3.03,2.74-6.25,5.72-11.35,9.07Z" style="fill: #70cbd5; stroke-width: 0px;"/>
  </g>
  <g>
    <path d="m531.88,87.7l-.85-.36c0,.11.21.23.85.36Z" style="fill: #70cbd5; stroke-width: 0px;"/>
    <path d="m305.86,104.22c-.07.03-.15.05-.21.08.15-.04.19-.06.21-.08Z" style="fill: #70cbd5; stroke-width: 0px;"/>
    <path d="m497.58,76.82s.03,0,.05,0c.08-.02.17-.04.24-.05l-.29.05Z" style="fill: #70cbd5; stroke-width: 0px;"/>
    <path d="m543.85,82.32c-12.01-2.35-15.13-3.82-27.83-4.62-3.01-.3-6.14-.56-9.25-.64-3.11-.1-6.2-.24-9.15-.24-2.83.75-7.75-.27-11.07.45l-1.28-.49c-1.14.23-2.48.38-3.63.11l.07-.14c-1.7.36-3.62.18-4.47.37l.07-.14-2.07.09.35-.2c-1.48.21-2.99.32-4.46.39-1.47.08-2.91.09-4.26.04l.24.57c-5.78-.49-7.83.86-13.05.34l.06-.14c-6.45,1.92-10.43-.41-17.06,1.62.82-.25-.38-.27-.33-.41-3.09.41-6.39.82-6.33,1.96-2.25.2-1.87-.18-2.2-.59.06.5-1.88.89-3.63,1.09l.79-.27c-1.68.21-3.35.46-5.02.7l1.09.83c-2.69.02-.8-1.07-3.33-.56l.12.77c-3.7.24-6-.67-9.64-.8-14.89,1.46-30.45,5.75-44.35,6.46l-.69-.49c-.39-.81-3.59,1.83-4.23,1.12l-1.53.63c-.47-.08-1.44-.1-.67-.41-1.48.19-1.49.34-2.51.75l-1.66-.29c-5.87.47-10.65,2.25-16.79,2.96-7.5.04-21.15,3.04-29.04,4.67-11.04,2.79-24.46.96-35.77,3.49-.38-.09-1.33.27-1.31.37-3.49.24-7.09.62-10.35.68,0,0-.75,0-2,.02-1.24-.01-2.97-.03-4.87-.24-1.9-.19-3.98-.51-5.88-1.08-1.9-.57-3.57-1.37-4.83-2.26-1.27-.89-2.22-1.84-2.89-2.53-.67-.67-1.25-1.02-1.58-.55-.16.23-.26.64-.26,1.33-.04.71.19,1.6.63,2.81.52,1.14,1.34,2.61,2.8,3.99,1.43,1.41,3.41,2.82,5.92,3.96l-.33.09c3.08,1.11,5.65,1.51,7.94,1.64,2.3.12,4.34-.09,6.41-.65.35.57,1.61.53,2.94.36,1.28-.18,2.64-.47,3.34-.34l-.12.11c3.47-1.19,7.37.09,10.71-1.07-.12.1-.16.43-.95.53,2.47-.4,5.84-1,6.1-.36,2.96-.43,6.51-.8,9.79-1.26,3.27-.49,6.26-1.05,8.09-1.82l-.24.22c2.07-.98,2.78-.47,5.14-1.15.14.07.32.09.3.13,2.25-1.02,6.84-1.03,8.69-1.6l.18.42,4.65-.76-1.76.15c.43-1.3,3.64.27,6.91-1.02,3.19-.31,6.05-3.45,9.41-3.36,1.48-.8-1.24,1.13,1.03.34.17.62-1.03.56-.36.97,2.25-.64,3.87.09,6.63-.77l.19.47c3.56-1.46,7.07-.41,9.4-1.64,3.75-.99,2.78,1.07,6.6-.5l1.64.43c1.71-.15,1.09-1,3.02-.96-.05.44,2.43-.03,1.39.54,4.35,0,8.5-2.23,14.27-1.95,1.1-.99,3.99-.91,4.81-1.66.2.33,5.66-.76,2.6.47-.26.1-.75.16-.73.02l-.31.54c3.32.45,5.73-1.32,8.92-1.62-.96-.03-2.2.18-1.41-.26l2.95-.34-.56.49,4.41-.35-.67-.43c2.18-.02,3.04.74,5.36-.29,1.04-.54-2.12-.42.12-.87,2.91-.04,7.27-.01,10.94-.32-.41-.53.58-.63,1.58-.86l.17.48c3.81-1.11,1.55.93,5.33-.04l-.3.38.91-1.15c3.38-1.36,1.98.82,5.71-.9-1.52.23-.83-1.02,1.08-.99l-.43.52c1.03-.2,1.36-.44,2.07-.4-.6.32-.26.73,1.26.5l-.97.7,2.81-1.16c2.28.32,5.77-.61,6.75-.02,0,0,1.21-.02,2.55-.14,1.34-.12,2.81-.31,3.34-.72-.93.52,1.73.52,1.01,1.11,1.21-.6,4.87-1.29,6.37-.81l-.28.08c5.47.3,9.29-1.27,14.2-.71-.24-.57,2.35-.34,1.69-1.06,5.06-.9,9.25,1.37,11.07-.96,2.31-.15,2.74.55,3.93.67l-.55.11c4.32-.12,5.58-.19,8.78-.03,1.6-.17,1.89-1.22,4.76-.87-.95.39.23.35,1.31.39-.69.04-.91.19.49.52.2-.12.51-.19.8-.25.01.03.07.06.03.11,1.8-.06,1.49-.2.66-.31.04-.06-.02-.15-.27-.28,1.83.65,5.18.27,5.37,1,1.35.04,2.6.03,3.79,0,1.19-.02,2.32-.04,3.43-.05,2.21-.05,4.31-.14,6.57-.07.46.42-.61.64-1.92.68,1.06.04,2.12.09,3.18.18-.08.53-1.84.09-2.83.13,1.85.58,3.79.63,5.84.62,2.04.03,4.18-.03,6.32.71l.97-.29.25.11c.02-.22,1.05-.38,1.71-.36.56.55-.2,1.06,1.98,1.35.82.35,2.05.45,3.36.53,1.31.06,2.69.12,3.83.17-1.19-.29-.76-.48-.21-.55,1.09.18,1.63.75,2.5.7v.64c-.33-.65,2.94-.15,3.38-.29.53.57-1.75.06-2.09.37,4.33.77,2.16.4,6.48,1.24,2.4.02-.29-.67.92-.98,1.03.16,2.07.23,3.13.38,1.06.16,2.13.43,3.25.89l-.6-.73c1.95.26,3.5.55,4.86.92,1.36.38,2.56.79,3.62,1.5,3.46.68,6.09,1.95,7.82,3.54.86.81,1.45,1.77,1.78,2.7.28.91.35,1.73.34,2.4-.01.34-.02.63-.03.9-.01.28.04.39.07.55.08.29.19.47.32.56.27.19.64.02,1.06-.36.28-.37.59-.86.89-1.43.21-.6.5-1.29.55-2.04.03-.38.09-.76.07-1.18-.03-.43-.08-.87-.16-1.31-.07-.44-.21-.81-.33-1.21l-.2-.58-.24-.51c-.16-.33-.33-.67-.5-.96-.18-.27-.35-.54-.52-.79-.34-.53-.67-.87-.95-1.21-.28-.34-.52-.56-.68-.72-.16-.16-.26-.25-.26-.25-1.45-1.42-2.9-2.41-4.35-3.21-1.45-.79-2.9-1.38-4.42-1.8-2.39-.61-4.63-1.07-6.98-1.49-2.33-.46-4.76-.73-7.46-1.11-1.35-.2-2.76-.4-4.27-.62-1.51-.21-3.12-.43-4.84-.66Z" style="fill: #70cbd5; stroke-width: 0px;"/>
  </g>
</svg>